<?xml version="1.0" encoding="UTF-8"?>
<svg id="Layer_1" data-name="Layer 1" xmlns="http://www.w3.org/2000/svg" viewBox="0 0 544.22 544.22">
  <defs>
    <style>
      .cls-1 {
        fill: #f8991f;
      }

      .cls-2 {
        fill: #00aeb8;
      }

      .cls-3 {
        fill: #f15c3f;
      }

      .cls-4 {
        fill: #d3e9f4;
      }

      .cls-5 {
        fill: #23295e;
      }
    </style>
  </defs>
  <path class="cls-4" d="m272.11,0C2.1,0,0,121.83,0,272.11s2.1,272.11,272.11,272.11,272.11-121.83,272.11-272.11S542.12,0,272.11,0Z"/>
  <g>
    <path class="cls-3" d="m405.17,235.06l-64.7,58.33h-160.48c-15.03,0-29.29,5.35-40.5,15.28l81.01-72.6,1.27-1.02,101.13-91.45c16.3-14.77,39.23-19.61,60.12-12.74s36.68,24.2,41.27,45.85c4.59,21.65-2.55,43.56-19.11,58.33h0Z"/>
    <path class="cls-1" d="m180.23,250.85c33.88,0,61.65-27.51,61.65-61.65s-27.77-61.39-61.65-61.39-61.65,27.51-61.65,61.65,27.51,61.39,61.65,61.39h0Z"/>
    <path class="cls-5" d="m180.23,293.39c-15.03,0-29.29,5.35-40.5,15.28l-.76.51c-25.22,22.67-27.26,61.65-4.59,86.86,22.67,25.22,61.65,27.26,86.86,4.59l119.22-107.24h-160.23Z"/>
    <path class="cls-2" d="m340.46,293.39l-119.22,107.24c-11.21,10.19-25.98,15.79-41.27,15.79h183.92c34.9-.51,60.63-28.02,60.63-61.65s-26.75-60.88-60.37-61.39h-23.69Z"/>
  </g>
</svg>