<?xml version="1.0" encoding="utf-8"?>
<!-- Generator: Adobe Illustrator 24.2.1, SVG Export Plug-In . SVG Version: 6.00 Build 0)  -->
<svg version="1.1" id="Layer_1" xmlns="http://www.w3.org/2000/svg" xmlns:xlink="http://www.w3.org/1999/xlink" x="0px" y="0px"
	 viewBox="0 0 120.5 113.3" style="enable-background:new 0 0 120.5 113.3;" xml:space="preserve">
<style type="text/css">
	.st0{fill:#F15C3F;}
	.st1{fill:#F8991F;}
	.st2{fill:#23295E;}
	.st3{fill:#00AEB8;}
</style>
<desc>Created with Sketch.</desc>
<g>
	<path class="st0" d="M112.5,42.1L87.1,65h-63c-5.9,0-11.5,2.1-15.9,6L40,42.5l0.5-0.4L80.2,6.2c6.4-5.8,15.4-7.7,23.6-5
		s14.4,9.5,16.2,18S119,36.3,112.5,42.1L112.5,42.1L112.5,42.1z"/>
	<path class="st1" d="M24.2,48.3c13.3,0,24.2-10.8,24.2-24.2S37.5,0,24.2,0S0,10.8,0,24.2S10.8,48.3,24.2,48.3L24.2,48.3z"/>
	<path class="st2" d="M24.2,65c-5.9,0-11.5,2.1-15.9,6L8,71.2c-9.9,8.9-10.7,24.2-1.8,34.1s24.2,10.7,34.1,1.8L87.1,65L24.2,65
		L24.2,65z"/>
	<path class="st3" d="M87.1,65l-46.8,42.1c-4.4,4-10.2,6.2-16.2,6.2h72.2c13.7-0.2,23.8-11,23.8-24.2S109.6,65.2,96.4,65L87.1,65
		L87.1,65z"/>
</g>
</svg>
